<?xml version="1.0" encoding="UTF-8" standalone="no"?>
<!-- Created with Inkscape (http://www.inkscape.org/) -->

<svg
   width="500"
   height="500"
   viewBox="0 0 132.29166 132.29167"
   version="1.1"
   id="svg5"
   inkscape:export-filename="C:\Users\tedla\prj\fpa2022-gui\icons\iso2fpa.png"
   inkscape:export-xdpi="95.987099"
   inkscape:export-ydpi="95.987099"
   sodipodi:docname="iso2fpa.svg"
   inkscape:version="1.1.1 (3bf5ae0d25, 2021-09-20)"
   xmlns:inkscape="http://www.inkscape.org/namespaces/inkscape"
   xmlns:sodipodi="http://sodipodi.sourceforge.net/DTD/sodipodi-0.dtd"
   xmlns="http://www.w3.org/2000/svg"
   xmlns:svg="http://www.w3.org/2000/svg">
  <sodipodi:namedview
     id="namedview7"
     pagecolor="#ffffff"
     bordercolor="#666666"
     borderopacity="1.0"
     inkscape:pageshadow="2"
     inkscape:pageopacity="0.0"
     inkscape:pagecheckerboard="0"
     inkscape:document-units="mm"
     showgrid="false"
     units="px"
     inkscape:zoom="0.70710678"
     inkscape:cx="108.18734"
     inkscape:cy="143.54268"
     inkscape:window-width="1920"
     inkscape:window-height="991"
     inkscape:window-x="-9"
     inkscape:window-y="-9"
     inkscape:window-maximized="1"
     inkscape:current-layer="layer1"
     showguides="true"
     inkscape:guide-bbox="true" />
  <defs
     id="defs2">
	
</defs>
  <g
     inkscape:label="Layer 1"
     inkscape:groupmode="layer"
     id="layer1">
    <path
       style="fill:#00ffff;stroke:#000000;stroke-width:1.31207;stroke-miterlimit:4;stroke-dasharray:none"
       id="path25939"
       sodipodi:type="arc"
       sodipodi:cx="66.603561"
       sodipodi:cy="67.164833"
       sodipodi:rx="65.485619"
       sodipodi:ry="66.421066"
       sodipodi:start="0"
       sodipodi:end="6.2825221"
       sodipodi:open="true"
       sodipodi:arc-type="arc"
       d="M 132.08918,67.164833 A 65.485619,66.421066 0 0 1 66.614419,133.5859 65.485619,66.421066 0 0 1 1.1179464,67.186859 65.485619,66.421066 0 0 1 66.570988,0.743775 65.485619,66.421066 0 0 1 132.08917,67.120781" />
    <path
       d="m 127.02313,84.077095 c 0.23878,-0.879896 -0.26676,-2.020145 -1.4662,-2.162421 -1.21401,-0.144026 -2.43298,-0.213414 -3.65165,-0.302045 -5.58346,-15.811591 -10.39344,-31.826392 -15.51742,-47.784341 0.42246,-0.07056 0.84462,-0.181635 1.26416,-0.347527 2.20265,-0.870857 3.79101,-2.853975 4.28985,-5.06042 4.15575,-0.646073 8.31616,-1.286024 12.48385,-1.932097 1.50906,-0.233823 1.13908,-2.690417 -0.35744,-2.644935 -4.1709,0.125658 -8.3211,0.405254 -12.45382,0.810507 -1.6154,-3.412507 -6.0831,-4.699926 -9.59374,-3.196603 -1.82121,0.778905 -3.111095,2.675313 -3.412848,4.864556 -7.975622,1.236461 -15.902846,2.822197 -23.810828,4.552251 -0.180178,-3.593637 -2.468256,-6.935374 -5.683753,-8.184663 -0.146941,-2.424232 -0.277555,-4.850213 -0.465313,-7.268323 -0.317789,-4.108512 -6.435367,-4.226006 -6.48114,0 -0.02741,2.482834 -0.0029,4.962752 -0.01341,7.445002 -4.133274,1.359651 -5.801018,7.324298 -4.998904,10.564579 0.130323,0.477266 0.338197,0.896805 0.536451,1.323051 -8.183205,1.883116 -16.373405,3.722209 -24.595095,5.326021 -0.89097,-1.11984 -1.39843,-2.024226 -2.89495,-2.467673 -3.48809,-1.178161 -7.540761,1.401186 -8.411041,4.472366 -3.14873,0.501465 -4.64134,0.983979 -7.80552,1.363868 -1.07975,0.185716 -1.05249,2.528167 0.38265,2.596973 3.18284,0.134404 4.32487,-0.132751 7.50625,-0.392569 0.44578,1.306432 1.6882,2.787625 2.799871,3.591717 -5.940941,15.743406 -10.501671,32.088871 -15.5134615,47.894716 -1.5111,-0.0933 -3.01578,-0.160644 -4.53125,-0.271724 -1.58749,-0.116037 -1.98312,2.277874 -0.63179,2.845229 1.93443,6.58815 12.0990005,9.32084 17.7929605,9.91735 9.779441,1.02304 19.227091,-1.86446 27.379973,-7.17154 2.256883,-1.46912 0.370268,-4.942342 -1.861833,-3.978772 -0.116912,-0.0026 -0.233823,-0.0052 -0.351609,-0.0087 C 41.3543,82.498064 36.35639,65.795674 31.10206,49.890798 c 3.40436,-2.484644 3.00773,-3.832499 3.16614,-5.970242 8.69575,-1.669994 17.342806,-4.053701 25.870913,-6.079093 0.61721,0.481056 1.272029,0.909342 1.986325,1.223632 0.108748,22.130921 0.450735,44.24814 -0.161518,66.402975 -6.313688,0.81827 -15.043727,3.40083 -18.86936,7.54646 -0.76386,0.97145 0.62502,1.41392 1.25279,1.77496 4.896583,2.8161 13.702039,1.39988 16.880801,1.48356 9.075636,0.23878 16.470682,0.0546 25.547194,0.222 2.195074,0.0408 2.799456,-2.86914 1.077566,-3.97702 -5.730401,-3.68373 -12.158479,-7.0587 -18.74516,-7.31643 0.716337,-21.931806 1.37553,-44.074389 0.756862,-66.089857 1.624513,-0.731497 3.049314,-1.959794 3.991893,-3.755155 0.07755,-0.147524 0.105832,-0.302045 0.173763,-0.451318 8.41253,-1.805938 16.930849,-3.12774 25.422804,-4.506768 0.694757,1.196809 1.729177,2.142595 2.922777,2.759513 -5.912323,15.734039 -9.786138,32.509201 -14.869008,48.529832 -1.820725,0.19184 -3.618709,0.49476 -5.371212,0.992726 -0.653362,0.185133 1.352808,-0.176617 1.786342,0.236508 1.857259,5.45168 10.253204,8.587001 14.20428,9.263103 10.512098,1.801483 18.709568,-1.275007 28.151978,-5.373898 1.12596,-0.488345 1.21634,-1.755709 0.7449,-2.729191 z M 43.06832,98.375545 C 33.04048,98.130061 23.097779,97.901194 13.101719,97.374948 c 4.59948,-15.640452 8.82383,-31.645191 13.113931,-47.353366 0.79109,0.523077 1.61338,0.428946 2.22244,0.513357 3.03561,16.173113 9.52987,32.148554 14.63023,47.84061 z m 61.5752,-61.819522 c 3.07993,15.255024 7.78495,30.210043 13.08415,44.831821 -5.03418,-0.157728 -10.08673,-0.02799 -15.11391,0.05569 -3.707925,0.06181 -7.533634,-0.118952 -11.314154,0 4.610269,-14.740443 10.048244,-29.752897 13.343914,-44.887511 z"
       id="path21809"
       style="stroke-width:0.291549;fill:#000000"
       sodipodi:nodetypes="cscccccccccccccccccccccccccccsccccccccacccccccccccccccscccssccccc" />
    <g
       id="g21813"
       transform="matrix(0.29154926,0,0,0.29154926,3.5515618,-0.28060531)">
</g>
    <g
       id="g21815"
       transform="matrix(0.29154926,0,0,0.29154926,3.5515618,-0.28060531)">
</g>
    <g
       id="g21817"
       transform="matrix(0.29154926,0,0,0.29154926,3.5515618,-0.28060531)">
</g>
    <g
       id="g21819"
       transform="matrix(0.29154926,0,0,0.29154926,3.5515618,-0.28060531)">
</g>
    <g
       id="g21821"
       transform="matrix(0.29154926,0,0,0.29154926,3.5515618,-0.28060531)">
</g>
    <g
       id="g21823"
       transform="matrix(0.29154926,0,0,0.29154926,3.5515618,-0.28060531)">
</g>
    <g
       id="g21825"
       transform="matrix(0.29154926,0,0,0.29154926,3.5515618,-0.28060531)">
</g>
    <g
       id="g21827"
       transform="matrix(0.29154926,0,0,0.29154926,3.5515618,-0.28060531)">
</g>
    <g
       id="g21829"
       transform="matrix(0.29154926,0,0,0.29154926,3.5515618,-0.28060531)">
</g>
    <g
       id="g21831"
       transform="matrix(0.29154926,0,0,0.29154926,3.5515618,-0.28060531)">
</g>
    <g
       id="g21833"
       transform="matrix(0.29154926,0,0,0.29154926,3.5515618,-0.28060531)">
</g>
    <g
       id="g21835"
       transform="matrix(0.29154926,0,0,0.29154926,3.5515618,-0.28060531)">
</g>
    <g
       id="g21837"
       transform="matrix(0.29154926,0,0,0.29154926,3.5515618,-0.28060531)">
</g>
    <g
       id="g21839"
       transform="matrix(0.29154926,0,0,0.29154926,3.5515618,-0.28060531)">
</g>
    <g
       id="g21841"
       transform="matrix(0.29154926,0,0,0.29154926,3.5515618,-0.28060531)">
</g>
  </g>
</svg>
